<?xml version="1.0" encoding="UTF-8"?>
<svg id="Layer_1" xmlns="http://www.w3.org/2000/svg" version="1.1" viewBox="0 0 480.70001 116.6">
  <!-- Generator: Adobe Illustrator 30.1.0, SVG Export Plug-In . SVG Version: 2.1.1 Build 136)  -->
  <defs>
    <style>
      .st0 {
        fill: #213264;
      }

      .st1 {
        fill: #3a8bcb;
      }
    </style>
  </defs>
  <g>
    <g id="animated-rects">
      <rect class="st0" x="5.9" y="99.5" width="12" height="12"/>
      <rect class="st0" x="29.1" y="87.5" width="12" height="12"/>
      <rect class="st0" x="17" y="75.5" width="12" height="12"/>
      <rect class="st1" x="5" y="63.5" width="12" height="12"/>
      <rect class="st1" x="17.5" y="40.3" width="12" height="12"/>
      <rect class="st1" x="5.5" y="28.3" width="12" height="12"/>
      <rect class="st0" x="17.5" y="16.3" width="12" height="12"/>
      <rect class="st1" x="29.5" y="4.2" width="12" height="12"/>
      <rect class="st0" x="41.3" y="75.5" width="12" height="12"/>
      <rect class="st1" x="29.1" y="52.3" width="12" height="12"/>
      <rect class="st1" x="29.1" y="64.3" width="11.9" height="11.1"/>
      <rect class="st1" x="41.1" y="52.3" width="11.6" height="12"/>
      <rect class="st0" x="40.6" y="99.9" width="12.6" height="12.5"/>
      <rect class="st0" x="41.2" y="28.3" width="12.1" height="12.1"/>
      <rect class="st0" x="29.7" y="28.3" width="11.5" height="12.1"/>
    </g>
    <path class="st0" d="M53.2,112.4h23.6c26.7,0,48.4-21.7,48.4-48.4h0c0-26.7-21.7-48.4-48.4-48.4h-23.5v24.8h24.3c13,0,23.6,10.5,23.6,23.6h0c0,13-10.6,23.6-23.6,23.6h-24.4v12.4"/>
  </g>
  <g>
    <path class="st0" d="M236,41h5.8v8h8.3v4.9h-8.39999v19.6c0,7.1,2.10001,8.8,7,8.8s1.60001,0,1.60001,0v5.1s-1.5.2-3.5.2c-7.60001,0-10.89999-5-10.89999-13.6v-20.1h-4.5v-4.9h4.5v-8h.09998Z"/>
    <path class="st0" d="M294.60001,49h5.60001v6c1-1.4,5-7,13.20001-7s18.60001,8.3,18.60001,19.9-7.39999,20.1-18.20001,20.1-12.29999-5.1-13.5-7.1v19.8h-5.79999v-51.8h0l.09998.1ZM313.20001,82.8c7.5,0,12.89999-6.1,12.89999-14.8s-5.70001-14.7-13-14.7-12.89999,6.7-12.89999,14.7,5.89999,14.8,13,14.8Z"/>
    <path class="st0" d="M370,63.3v23.8h-5.79999v-24c0-6.1-3.89999-9.7-9-9.7s-10,4.3-10,10.6v23.1h-5.79999v-52.9h5.79999v20.4c1.79999-3.4,6.10001-6.4,11.29999-6.4,8.89999,0,13.5,6.6,13.5,15.2h0v-.1Z"/>
    <path class="st0" d="M382.39999,35.2c2.29999,0,4,1.8,4,4s-1.79999,4-4,4-4-1.8-4-4,1.79999-4,4-4ZM379.60001,49h5.79999v38.1h-5.79999v-38.1Z"/>
    <path class="st0" d="M427,48.1c11.20001,0,18.10001,8.1,18.10001,19.5s0,1,0,1.8h-30.5c0,8.5,5.79999,13.6,13.70001,13.6s10-3.4,11.89999-5.9l3.79999,2.8c-2.10001,3.6-7.10001,8.3-15.70001,8.3s-19.5-8.1-19.5-19.8,8.39999-20.1,18.5-20.1h0l-.29999-.20001ZM439.20001,65c-.39999-7.9-5.89999-11.9-12.20001-11.9s-11.79999,4.8-12.20001,11.9h24.40002Z"/>
    <path class="st0" d="M188.3,79v-44.9h-5.89999v21c-1.10001-2-5.5-7.1-13.39999-7.1s-18.2,8.3-18.2,20.1,7.7,19.9,18.60001,19.9,12.2-5.6,13.2-7v1.2c0,2.6,2.10001,4.8,4.8,4.8h3.3v-6.3h-.7c-.89999,0-1.7-.8-1.7-1.7h-.00003ZM169.8,82.8c-7.3,0-13-5.8-13-14.7s5.39999-14.9,12.89999-14.9,13,5.4,13,14.9-4.89999,14.7-12.89999,14.7Z"/>
    <path class="st0" d="M228.60001,80.8c-1.3,0-2.39999-1.1-2.39999-2.3v-16.4c0-8.1-4.10001-13.9-14.5-13.9s-11.5,2.6-14.10001,4.2l2.3,4.2c2.7-1.6,6.5-3.3,11.2-3.3s9.2,3.1,9.2,8.4v4.7c-1.5-1.6-5.2-3.4-10-3.4-8.60001,0-14.60001,5.3-14.60001,12.5s6.10001,12.7,14.5,12.7,8.39999-1.9,10.3-4.2c.39999,1.9,2,3.2,3.89999,3.2h4.5v-6.3h-.5l.20001-.09998ZM211.2,83.2c-5.89999,0-9.60001-3.5-9.60001-7.9s3.7-7.8,9.5-7.8,9.5,3.1,9.5,7.8-3.89999,7.9-9.39999,7.9h0Z"/>
    <path class="st0" d="M287.5,80.8c-1.29999,0-2.39999-1.1-2.39999-2.3v-16.4c0-8.1-4.10001-13.9-14.5-13.9s-11.5,2.6-14.10001,4.2l2.29999,4.2c2.70001-1.6,6.5-3.3,11.20001-3.3s9.20001,3.1,9.20001,8.4v4.7c-1.5-1.6-5.20001-3.4-10-3.4-8.60001,0-14.60001,5.3-14.60001,12.5s6.10001,12.7,14.5,12.7,8.39999-1.9,10.29999-4.2c.39999,1.9,2,3.2,4,3.2h4.5v-6.3h-.5l.10001-.09998ZM270.20001,83.2c-5.89999,0-9.60001-3.5-9.60001-7.9s3.70001-7.8,9.5-7.8,9.5,3.1,9.5,7.8-3.89999,7.9-9.5,7.9h.10001Z"/>
    <path class="st0" d="M401.10001,77.9v-43.8h-5.79999v47.2c0,2.7,2.20001,4.8,4.79999,5.4,2.5.5,6.29999.1,8.10001-1.8.20001-.2.39999-.4.39999-.4v-1.4c0-.3-.10001-3.3,0-3.3-1.39999.5-3.29999,1.1-4.79999.9-1.5-.1-2.60001-1.2-2.60001-2.7h0l-.10001-.1Z"/>
  </g>
  <path class="st0" d="M453.59544,77.27408c1.60999,3,4.32001,5.86,9.51999,5.86,3.81,0,7.03-2.2,7.03-6.08,0-8.79-19.10999-5.79-19.10999-18.67,0-6.44,5.35001-10.33,12.23001-10.33s10.76001,4.47,11.79001,7.32l-4.25,2.42c-1.03-2.05-3-4.91-7.91-4.91-3.51001,0-6.29999,1.98-6.29999,5.27,0,8.57,19.19,5.35,19.19,18.6,0,6.74-5.57001,11.28-12.95999,11.28-7.98001,0-11.57001-4.54-13.25-8.13l4.03-2.64-.01004.01Z"/>
  <script type="text/javascript">
    <![CDATA[
      (function() {
        var darkBlue = '#213264';
        var lightBlue = '#3a8bcb';
        var flickerDuration = 2000; // 2 seconds of flickering
        var defaultDuration = 5000; // 5 seconds of default colors

        var rects = document.querySelectorAll('#animated-rects rect');
        var originalColors = [];
        var isFlickering = false;

        // Store original colors based on class
        for (var i = 0; i < rects.length; i++) {
          var cls = rects[i].getAttribute('class');
          originalColors.push(cls === 'st0' ? darkBlue : lightBlue);
        }

        function getRandomColor() {
          return Math.random() > 0.5 ? darkBlue : lightBlue;
        }

        function getRandomInterval() {
          // Random interval between 50ms and 200ms for realistic modem flicker
          return 50 + Math.floor(Math.random() * 150);
        }

        function startFlickerForRect(rect) {
          function flicker() {
            if (!isFlickering) return; // Stop if flicker phase ended
            rect.style.fill = getRandomColor();
            setTimeout(flicker, getRandomInterval());
          }
          flicker();
        }

        function resetToDefault() {
          for (var i = 0; i < rects.length; i++) {
            rects[i].style.fill = originalColors[i];
          }
        }

        function runAnimation() {
          // Start flicker phase
          isFlickering = true;
          for (var i = 0; i < rects.length; i++) {
            startFlickerForRect(rects[i]);
          }

          // After flicker duration, stop and reset to default
          setTimeout(function() {
            isFlickering = false;
            resetToDefault();

            // After default duration, start again
            setTimeout(runAnimation, defaultDuration);
          }, flickerDuration);
        }

        // Start animation when SVG loads
        // Use setTimeout to ensure DOM is fully ready when embedded via <object>
        function init() {
          if (rects.length > 0) {
            runAnimation();
          } else {
            setTimeout(init, 50);
          }
        }

        if (document.readyState === 'complete' || document.readyState === 'interactive') {
          setTimeout(init, 0);
        } else {
          document.addEventListener('DOMContentLoaded', init);
        }
      })();
    ]]>
  </script>
</svg>