<?xml version="1.0" encoding="UTF-8"?>
<svg id="Layer_1" xmlns="http://www.w3.org/2000/svg" version="1.1" viewBox="0 0 283 51">
  <!-- Generator: Adobe Illustrator 30.1.0, SVG Export Plug-In . SVG Version: 2.1.1 Build 136)  -->
  <!-- Animation: Typing indicator style - sequential dot pulsing -->
  <defs>
    <style>
      .st0, .st1, .st2 {
        fill: #fff;
      }

      .st1, .st2 {
        opacity: .5;
      }

      .st1 {
        isolation: isolate;
      }
    </style>
  </defs>



  <g id="Logo" clip-path="url(#clip-Logo)">
    <g id="Group_7877" data-name="Group 7877">
      <g id="Group_7813" data-name="Group 7813" transform="translate(7 5.811)">
        <path id="Path_359" data-name="Path 359" d="M111.38,0A20.316,20.316,0,1,0,131.7,20.316,20.316,20.316,0,0,0,111.38,0Zm0,32.332a11.96,11.96,0,0,1-7.417-2.566H95.722l4.21-5.792a12.017,12.017,0,1,1,11.448,8.358Z" transform="translate(-91.064)" class="st0"/>
        <circle id="Ellipse_1" data-name="Ellipse 1" cx="2.003" cy="2.003" r="2.003" transform="translate(12.16 18.312)" class="st0"/>
        <circle id="Ellipse_2" data-name="Ellipse 2" cx="2.003" cy="2.003" r="2.003" transform="translate(18.312 18.312)" class="st0"/>
        <circle id="Ellipse_3" data-name="Ellipse 3" cx="2.003" cy="2.003" r="2.003" transform="translate(24.466 18.312)" class="st1"/>
      </g>
      <g id="Group_7875" data-name="Group 7875" transform="translate(-1786.93 -4226.457)" style="isolation: isolate">
        <path id="Path_9938" data-name="Path 9938" d="M1863.338,4250.444c0,4.311-3.192,6.972-8.344,6.972h-4.424v5.656h-3.64v-19.6h8.064C1860.146,4243.472,1863.338,4246.1,1863.338,4250.444Zm-3.668,0c0-2.464-1.652-3.892-4.844-3.892h-4.256v7.784h4.256C1858.018,4254.336,1859.67,4252.908,1859.67,4250.444Z" class="st0"/>
        <path id="Path_9939" data-name="Path 9939" d="M1879.018,4254.308v8.764h-3.3v-1.82c-.84,1.288-2.464,2.016-4.7,2.016-3.416,0-5.572-1.876-5.572-4.48,0-2.492,1.68-4.452,6.216-4.452h3.864v-.224c0-2.044-1.232-3.248-3.724-3.248a7.394,7.394,0,0,0-4.536,1.484l-1.372-2.548a10.513,10.513,0,0,1,6.328-1.848C1876.526,4247.952,1879.018,4250,1879.018,4254.308Zm-3.5,4.088v-1.736h-3.612c-2.38,0-3.024.9-3.024,1.988,0,1.26,1.064,2.072,2.856,2.072A3.811,3.811,0,0,0,1875.518,4258.4Z" class="st0"/>
        <path id="Path_9940" data-name="Path 9940" d="M1892.486,4262.26a5.5,5.5,0,0,1-3.36,1.008c-3.276,0-5.152-1.736-5.152-5.04v-7.2h-2.464v-2.8h2.464v-3.416h3.5v3.416h4v2.8h-4v7.112c0,1.456.728,2.24,2.072,2.24a3.147,3.147,0,0,0,1.96-.616Z" class="st0"/>
        <path id="Path_9941" data-name="Path 9941" d="M1894.894,4243.556a2.131,2.131,0,0,1,2.24-2.1,2.084,2.084,0,0,1,2.24,2.016,2.243,2.243,0,0,1-4.48.084Zm.476,4.564h3.5v14.952h-3.5Z" class="st0"/>
        <path id="Path_9942" data-name="Path 9942" d="M1917.461,4256.715h-11.732c.42,2.185,2.24,3.584,4.844,3.584a5.357,5.357,0,0,0,4.06-1.623l1.876,2.156a7.578,7.578,0,0,1-6.02,2.436c-5.012,0-8.26-3.221-8.26-7.672a7.436,7.436,0,0,1,7.728-7.644c4.368,0,7.56,3.052,7.56,7.728C1917.517,4255.96,1917.489,4256.379,1917.461,4256.715Zm-11.76-2.323h8.484a4.07,4.07,0,0,0-4.228-3.64A4.132,4.132,0,0,0,1905.7,4254.392Z" class="st0"/>
        <path id="Path_9943" data-name="Path 9943" d="M1935.6,4254.5v8.568h-3.5v-8.12c0-2.66-1.316-3.948-3.556-3.948-2.492,0-4.172,1.512-4.172,4.508v7.56h-3.5V4248.12h3.332v1.932a6.5,6.5,0,0,1,5.152-2.1C1932.945,4247.952,1935.6,4250,1935.6,4254.5Z" class="st0"/>
        <path id="Path_9944" data-name="Path 9944" d="M1949.045,4262.26a5.5,5.5,0,0,1-3.36,1.008c-3.276,0-5.152-1.736-5.152-5.04v-7.2h-2.464v-2.8h2.464v-3.416h3.5v3.416h4v2.8h-4v7.112c0,1.456.728,2.24,2.072,2.24a3.147,3.147,0,0,0,1.96-.616Z" class="st0"/>
      </g>
      <g id="Group_7876" data-name="Group 7876" transform="translate(-1786.93 -4226.457)">
        <path id="Path_9945" data-name="Path 9945" d="M1950.865,4253.272c0-5.852,4.48-10.08,10.5-10.08a9.929,9.929,0,0,1,7.756,3.276l-2.352,2.212a6.884,6.884,0,0,0-5.236-2.3,6.889,6.889,0,1,0,0,13.776,6.815,6.815,0,0,0,5.236-2.324l2.352,2.24a9.948,9.948,0,0,1-7.784,3.276C1955.345,4263.352,1950.865,4259.124,1950.865,4253.272Z" class="st2"/>
        <path id="Path_9946" data-name="Path 9946" d="M1970.493,4255.6c0-4.48,3.36-7.644,7.952-7.644,4.648,0,7.98,3.164,7.98,7.644s-3.332,7.672-7.98,7.672C1973.853,4263.268,1970.493,4260.076,1970.493,4255.6Zm12.4,0a4.444,4.444,0,1,0-4.452,4.676A4.355,4.355,0,0,0,1982.9,4255.6Z" class="st2"/>
        <path id="Path_9947" data-name="Path 9947" d="M2014.788,4254.5v8.568h-3.5v-8.12c0-2.66-1.232-3.948-3.36-3.948-2.3,0-3.892,1.512-3.892,4.48v7.588h-3.5v-8.12c0-2.66-1.232-3.948-3.36-3.948-2.324,0-3.892,1.512-3.892,4.48v7.588h-3.5V4248.12h3.332v1.9a6.194,6.194,0,0,1,4.9-2.072,5.6,5.6,0,0,1,5.04,2.492,6.98,6.98,0,0,1,5.6-2.492C2012.268,4247.952,2014.788,4250,2014.788,4254.5Z" class="st2"/>
        <path id="Path_9948" data-name="Path 9948" d="M2044.272,4254.5v8.568h-3.5v-8.12c0-2.66-1.232-3.948-3.36-3.948-2.3,0-3.892,1.512-3.892,4.48v7.588h-3.5v-8.12c0-2.66-1.232-3.948-3.36-3.948-2.324,0-3.892,1.512-3.892,4.48v7.588h-3.5V4248.12h3.332v1.9a6.194,6.194,0,0,1,4.9-2.072,5.6,5.6,0,0,1,5.04,2.492,6.978,6.978,0,0,1,5.6-2.492C2041.752,4247.952,2044.272,4250,2044.272,4254.5Z" class="st2"/>
        <path id="Path_9949" data-name="Path 9949" d="M2047.044,4261.587l1.344-2.659a10.064,10.064,0,0,0,5.208,1.484c2.212,0,3.136-.616,3.136-1.652,0-2.856-9.24-.169-9.24-6.132,0-2.828,2.548-4.676,6.58-4.676a11.9,11.9,0,0,1,5.6,1.288l-1.344,2.66a8.186,8.186,0,0,0-4.284-1.12c-2.128,0-3.136.7-3.136,1.68,0,3.024,9.24.336,9.24,6.188,0,2.8-2.576,4.62-6.776,4.62A11.869,11.869,0,0,1,2047.044,4261.587Z" class="st2"/>
      </g>
    </g>
  </g>




  <script type="text/javascript">
    <![CDATA[
      (function() {
        var fullOpacity = 1;
        var dimOpacity = 0.3;
        var typingDuration = 2000; // 2 seconds of typing animation
        var staticDuration = 5000; // 5 seconds of static display
        var dotDelay = 300; // Delay between each dot lighting up

        var circles = [
          document.getElementById('Ellipse_1'),
          document.getElementById('Ellipse_2'),
          document.getElementById('Ellipse_3')
        ];

        // Original opacities: st0 = 1, st1 = 0.5
        var originalOpacities = [1, 1, 0.5];
        var isAnimating = false;
        var animationTimer = null;

        function resetToDefault() {
          for (var i = 0; i < circles.length; i++) {
            circles[i].style.opacity = originalOpacities[i];
          }
        }

        function pulseSequence() {
          if (!isAnimating) return;

          var dotIndex = 0;

          function pulseDot() {
            if (!isAnimating) return;

            // Dim all dots first
            for (var i = 0; i < circles.length; i++) {
              circles[i].style.opacity = dimOpacity;
            }

            // Light up current dot and the next one (two circles at full opacity)
            circles[dotIndex].style.opacity = fullOpacity;
            circles[(dotIndex + 1) % circles.length].style.opacity = fullOpacity;

            // Move to next dot
            dotIndex = (dotIndex + 1) % circles.length;

            // Continue the sequence
            animationTimer = setTimeout(pulseDot, dotDelay);
          }

          pulseDot();
        }

        function runAnimation() {
          // Start typing animation phase
          isAnimating = true;
          pulseSequence();

          // After typing duration, stop and reset to default
          setTimeout(function() {
            isAnimating = false;
            if (animationTimer) {
              clearTimeout(animationTimer);
              animationTimer = null;
            }
            resetToDefault();

            // After static duration, start again
            setTimeout(runAnimation, staticDuration);
          }, typingDuration);
        }

        // Start animation when SVG loads
        // Use setTimeout to ensure DOM is fully ready when embedded via <object>
        function init() {
          // Verify circles are accessible
          if (circles[0] && circles[1] && circles[2]) {
            runAnimation();
          } else {
            // Retry after a short delay if elements not found
            setTimeout(init, 50);
          }
        }

        if (document.readyState === 'complete' || document.readyState === 'interactive') {
          setTimeout(init, 0);
        } else {
          document.addEventListener('DOMContentLoaded', init);
        }
      })();
    ]]>
  </script>
</svg>