<?xml version="1.0" encoding="UTF-8"?><svg id="Layer_1" xmlns="http://www.w3.org/2000/svg" viewBox="0 0 500 143.23"><defs><style>.cls-1{fill:#213264;}.cls-2{fill:#3a8bcb;}</style></defs><g><path class="cls-1" d="m86.41,28.89h-23.5v12.15s-23.82.29-23.82.29v12.37h48.04c13.02,0,23.57,10.55,23.57,23.57h0c0,13.02-10.55,23.57-23.57,23.57h-24l-.21,12.37h-12.64v12.45h36.14c26.73,0,48.4-21.67,48.4-48.4h0c0-26.73-21.67-48.4-48.4-48.4Z"/><rect class="cls-1" x="15.48" y="112.8" width="12.02" height="12.02"/><rect class="cls-1" x="38.66" y="100.78" width="12.02" height="12.02"/><rect class="cls-1" x="26.64" y="88.76" width="12.02" height="12.02"/><rect class="cls-2" x="14.62" y="76.75" width="12.02" height="12.02"/><rect class="cls-2" x="27.07" y="53.6" width="12.02" height="12.02"/><rect class="cls-2" x="15.05" y="41.59" width="12.02" height="12.02"/><rect class="cls-1" x="27.07" y="29.57" width="12.02" height="12.02"/><rect class="cls-2" x="39.09" y="17.55" width="12.02" height="12.02"/><polygon class="cls-2" points="62.25 65.62 50.68 65.62 39.11 65.62 38.66 65.62 38.66 88.76 50.68 88.76 50.68 77.64 62.25 77.64 62.25 65.62"/><rect class="cls-1" x="50.89" y="88.76" width="12.02" height="12.02"/></g><g><path class="cls-1" d="m245.64,54.34h5.78v7.98h8.35v4.91h-8.35v19.62c0,7.1,2.05,8.79,7.03,8.79.73,0,1.61-.07,1.61-.07v5.13s-1.54.22-3.51.22c-7.62,0-10.91-4.98-10.91-13.55v-20.14h-4.47v-4.91h4.47v-7.98Z"/><path class="cls-1" d="m304.15,62.32h5.57v6c.95-1.39,4.98-6.96,13.25-6.96,10.84,0,18.6,8.27,18.6,19.92s-7.4,20.06-18.16,20.06c-7.98,0-12.3-5.13-13.47-7.1v19.84h-5.79v-51.77Zm18.6,33.76c7.47,0,12.89-6.08,12.89-14.79s-5.71-14.65-13.03-14.65c-7.91,0-12.89,6.66-12.89,14.65,0,9.37,5.86,14.79,13.03,14.79Z"/><path class="cls-1" d="m379.57,76.6v23.8h-5.79v-24.02c0-6.08-3.88-9.74-9.01-9.74-5.86,0-9.96,4.32-9.96,10.62v23.14h-5.79v-52.94h5.79v20.36c1.83-3.44,6.08-6.44,11.28-6.44,8.86,0,13.47,6.59,13.47,15.23Z"/><path class="cls-1" d="m392.02,48.56c2.27,0,4.03,1.76,4.03,3.95s-1.76,4.03-4.03,4.03-3.95-1.76-3.95-4.03,1.76-3.95,3.95-3.95Zm-2.86,13.77h5.79v38.08h-5.79v-38.08Z"/><path class="cls-1" d="m436.61,61.37c11.2,0,18.09,8.06,18.09,19.48,0,.22,0,1.03-.07,1.76h-30.54c.07,8.49,5.78,13.62,13.69,13.62,6.44,0,10.03-3.37,11.86-5.93l3.81,2.78c-2.12,3.59-7.1,8.27-15.74,8.27-11.57,0-19.55-8.13-19.55-19.84s8.35-20.14,18.45-20.14Zm12.16,16.92c-.37-7.91-5.86-11.94-12.16-11.94s-11.79,4.76-12.23,11.94h24.38Z"/><path class="cls-1" d="m463.19,90.59c1.61,3,4.32,5.86,9.52,5.86,3.81,0,7.03-2.2,7.03-6.08,0-8.79-19.11-5.79-19.11-18.67,0-6.44,5.35-10.33,12.23-10.33s10.76,4.47,11.79,7.32l-4.25,2.42c-1.03-2.05-3-4.91-7.91-4.91-3.51,0-6.3,1.98-6.3,5.27,0,8.57,19.19,5.35,19.19,18.6,0,6.74-5.57,11.28-12.96,11.28-7.98,0-11.57-4.54-13.25-8.13l4.03-2.64Z"/><path class="cls-1" d="m197.9,92.36v-44.91h-5.86v21.02c-1.1-1.98-5.49-7.1-13.4-7.1-10.84,0-18.16,8.35-18.16,20.06s7.69,19.92,18.6,19.92c8.27,0,12.23-5.57,13.18-6.96v1.22c0,2.64,2.14,4.78,4.78,4.78h3.29v-6.33h-.73c-.94,0-1.7-.76-1.7-1.7Zm-18.53,3.79c-7.32,0-12.96-5.79-12.96-14.65s5.42-14.86,12.89-14.86,12.96,5.42,12.96,14.86c0,7.98-4.91,14.65-12.89,14.65Z"/><path class="cls-1" d="m238.18,94.07c-1.3,0-2.35-1.05-2.35-2.35v-16.44c0-8.13-4.1-13.91-14.5-13.91-6.44,0-11.5,2.56-14.06,4.17l2.34,4.25c2.71-1.61,6.52-3.3,11.2-3.3,5.64,0,9.23,3.08,9.23,8.42v4.69c-1.54-1.61-5.2-3.44-10.03-3.44-8.57,0-14.65,5.27-14.65,12.52s6.15,12.67,14.5,12.67c5.13,0,8.35-1.9,10.32-4.17.38,1.88,2.03,3.22,3.95,3.22h4.54v-6.33h-.5Zm-17.36,2.45c-5.86,0-9.59-3.51-9.59-7.91s3.73-7.84,9.52-7.84,9.52,3.08,9.52,7.84-3.88,7.91-9.45,7.91Z"/><path class="cls-1" d="m297.12,94.07c-1.3,0-2.35-1.05-2.35-2.35v-16.44c0-8.13-4.1-13.91-14.5-13.91-6.44,0-11.5,2.56-14.06,4.17l2.34,4.25c2.71-1.61,6.52-3.3,11.2-3.3,5.64,0,9.23,3.08,9.23,8.42v4.69c-1.54-1.61-5.2-3.44-10.03-3.44-8.57,0-14.65,5.27-14.65,12.52s6.15,12.67,14.5,12.67c5.13,0,8.35-1.9,10.32-4.17.38,1.88,2.03,3.22,3.95,3.22h4.54v-6.33h-.5Zm-17.36,2.45c-5.86,0-9.59-3.51-9.59-7.91s3.73-7.84,9.52-7.84,9.52,3.08,9.52,7.84-3.88,7.91-9.45,7.91Z"/><path class="cls-1" d="m410.69,91.26v-43.8h-5.79s0,47.05,0,47.16c0,2.71,2.24,4.82,4.77,5.37,2.45.53,6.27.11,8.1-1.79.18-.19.38-.45.38-.45v-1.39c0-.3-.13-3.27,0-3.32-1.43.54-3.28,1.07-4.82.95-1.47-.12-2.65-1.21-2.65-2.72Z"/></g></svg>