<?xml version="1.0" encoding="UTF-8"?>
<svg id="Layer_1" xmlns="http://www.w3.org/2000/svg" version="1.1" viewBox="0 0 500 143.2">
  <!-- Generator: Adobe Illustrator 30.1.0, SVG Export Plug-In . SVG Version: 2.1.1 Build 136)  -->
  <!-- Animation: Data transfer modem-style flicker effect (white version - opacity based) -->
  <defs>
    <style>
      .st0 {
        fill: #ffffff;
      }

      .st1 {
        fill: #ffffff;
        fill-opacity: 0.5;
      }
    </style>
  </defs>
  <g id="animated-rects">
    <rect class="st0" x="15.5" y="112.8" width="12" height="12"/>
    <rect class="st0" x="38.7" y="100.8" width="12" height="12"/>
    <rect class="st0" x="26.6" y="88.8" width="12" height="12"/>
    <rect class="st1" x="14.6" y="76.8" width="12" height="12"/>
    <rect class="st1" x="27.1" y="53.6" width="12" height="12"/>
    <rect class="st1" x="15.1" y="41.6" width="12" height="12"/>
    <rect class="st0" x="27.1" y="29.6" width="12" height="12"/>
    <rect class="st1" x="39.1" y="17.5" width="12" height="12"/>
    <rect class="st0" x="50.9" y="88.8" width="12" height="12"/>
    <rect class="st1" x="38.7" y="65.6" width="12" height="12"/>
    <rect class="st1" x="38.7" y="77.6" width="11.9" height="11.1"/>
    <rect class="st1" x="50.7" y="65.6" width="11.6" height="12"/>
    <rect class="st0" x="50.2" y="113.2" width="12.6" height="12.5"/>
    <rect class="st0" x="50.8" y="41.6" width="12.1" height="12.1"/>
    <rect class="st0" x="39.3" y="41.6" width="11.5" height="12.1"/>
  </g>
  <g>
    <path class="st0" d="M62.9,125.7h23.5c26.7,0,48.4-21.7,48.4-48.4h0c0-26.7-21.7-48.4-48.4-48.4h0s-23.5,0-23.5,0v24.8h24.3c13,0,23.6,10.5,23.6,23.6h0c0,13-10.6,23.6-23.6,23.6h-24l-.2,12.4"/>
    <path class="st0" d="M245.6,54.3h5.8v8h8.3v4.9h-8.4v19.6c0,7.1,2.1,8.8,7,8.8s1.6,0,1.6,0v5.1s-1.5.2-3.5.2c-7.6,0-10.9-5-10.9-13.6v-20.1h-4.5v-4.9h4.5v-8h0Z"/>
    <path class="st0" d="M304.1,62.3h5.6v6c1-1.4,5-7,13.2-7s18.6,8.3,18.6,19.9-7.4,20.1-18.2,20.1-12.3-5.1-13.5-7.1v19.8h-5.8v-51.8h0ZM322.8,96.1c7.5,0,12.9-6.1,12.9-14.8s-5.7-14.7-13-14.7-12.9,6.7-12.9,14.7,5.9,14.8,13,14.8Z"/>
    <path class="st0" d="M379.6,76.6v23.8h-5.8v-24c0-6.1-3.9-9.7-9-9.7s-10,4.3-10,10.6v23.1h-5.8v-52.9h5.8v20.4c1.8-3.4,6.1-6.4,11.3-6.4,8.9,0,13.5,6.6,13.5,15.2h0Z"/>
    <path class="st0" d="M392,48.6c2.3,0,4,1.8,4,4s-1.8,4-4,4-4-1.8-4-4,1.8-4,4-4ZM389.2,62.3h5.8v38.1h-5.8v-38.1Z"/>
    <path class="st0" d="M436.6,61.4c11.2,0,18.1,8.1,18.1,19.5s0,1,0,1.8h-30.5c0,8.5,5.8,13.6,13.7,13.6s10-3.4,11.9-5.9l3.8,2.8c-2.1,3.6-7.1,8.3-15.7,8.3s-19.5-8.1-19.5-19.8,8.4-20.1,18.5-20.1h0ZM448.8,78.3c-.4-7.9-5.9-11.9-12.2-11.9s-11.8,4.8-12.2,11.9h24.4Z"/>
    <path class="st0" d="M463.2,90.6c1.6,3,4.3,5.9,9.5,5.9s7-2.2,7-6.1c0-8.8-19.1-5.8-19.1-18.7s5.4-10.3,12.2-10.3,10.8,4.5,11.8,7.3l-4.2,2.4c-1-2.1-3-4.9-7.9-4.9s-6.3,2-6.3,5.3c0,8.6,19.2,5.3,19.2,18.6s-5.6,11.3-13,11.3-11.6-4.5-13.2-8.1l4-2.6h0Z"/>
    <path class="st0" d="M197.9,92.4v-44.9h-5.9v21c-1.1-2-5.5-7.1-13.4-7.1s-18.2,8.3-18.2,20.1,7.7,19.9,18.6,19.9,12.2-5.6,13.2-7v1.2c0,2.6,2.1,4.8,4.8,4.8h3.3v-6.3h-.7c-.9,0-1.7-.8-1.7-1.7h0ZM179.4,96.2c-7.3,0-13-5.8-13-14.7s5.4-14.9,12.9-14.9,13,5.4,13,14.9-4.9,14.7-12.9,14.7Z"/>
    <path class="st0" d="M238.2,94.1c-1.3,0-2.4-1.1-2.4-2.3v-16.4c0-8.1-4.1-13.9-14.5-13.9s-11.5,2.6-14.1,4.2l2.3,4.2c2.7-1.6,6.5-3.3,11.2-3.3s9.2,3.1,9.2,8.4v4.7c-1.5-1.6-5.2-3.4-10-3.4-8.6,0-14.6,5.3-14.6,12.5s6.1,12.7,14.5,12.7,8.4-1.9,10.3-4.2c.4,1.9,2,3.2,3.9,3.2h4.5v-6.3h-.5,0ZM220.8,96.5c-5.9,0-9.6-3.5-9.6-7.9s3.7-7.8,9.5-7.8,9.5,3.1,9.5,7.8-3.9,7.9-9.4,7.9h0Z"/>
    <path class="st0" d="M297.1,94.1c-1.3,0-2.4-1.1-2.4-2.3v-16.4c0-8.1-4.1-13.9-14.5-13.9s-11.5,2.6-14.1,4.2l2.3,4.2c2.7-1.6,6.5-3.3,11.2-3.3s9.2,3.1,9.2,8.4v4.7c-1.5-1.6-5.2-3.4-10-3.4-8.6,0-14.6,5.3-14.6,12.5s6.1,12.7,14.5,12.7,8.4-1.9,10.3-4.2c.4,1.9,2,3.2,4,3.2h4.5v-6.3h-.5,0ZM279.8,96.5c-5.9,0-9.6-3.5-9.6-7.9s3.7-7.8,9.5-7.8,9.5,3.1,9.5,7.8-3.9,7.9-9.5,7.9h0Z"/>
    <path class="st0" d="M410.7,91.3v-43.8h-5.8v47.2c0,2.7,2.2,4.8,4.8,5.4,2.5.5,6.3.1,8.1-1.8.2-.2.4-.4.4-.4v-1.4c0-.3-.1-3.3,0-3.3-1.4.5-3.3,1.1-4.8.9-1.5-.1-2.6-1.2-2.6-2.7h0Z"/>
  </g>
  <script type="text/javascript">
    <![CDATA[
      (function() {
        var fullOpacity = 1;
        var halfOpacity = 0.5;
        var flickerDuration = 2000; // 2 seconds of flickering
        var defaultDuration = 5000; // 5 seconds of default colors

        var rects = document.querySelectorAll('#animated-rects rect');
        var originalOpacities = [];
        var isFlickering = false;

        // Store original opacities based on class
        for (var i = 0; i < rects.length; i++) {
          var cls = rects[i].getAttribute('class');
          originalOpacities.push(cls === 'st0' ? fullOpacity : halfOpacity);
        }

        function getRandomOpacity() {
          return Math.random() > 0.5 ? fullOpacity : halfOpacity;
        }

        function getRandomInterval() {
          // Random interval between 50ms and 200ms for realistic modem flicker
          return 50 + Math.floor(Math.random() * 150);
        }

        function startFlickerForRect(rect) {
          function flicker() {
            if (!isFlickering) return; // Stop if flicker phase ended
            rect.style.fillOpacity = getRandomOpacity();
            setTimeout(flicker, getRandomInterval());
          }
          flicker();
        }

        function resetToDefault() {
          for (var i = 0; i < rects.length; i++) {
            rects[i].style.fillOpacity = originalOpacities[i];
          }
        }

        function runAnimation() {
          // Start flicker phase
          isFlickering = true;
          for (var i = 0; i < rects.length; i++) {
            startFlickerForRect(rects[i]);
          }

          // After flicker duration, stop and reset to default
          setTimeout(function() {
            isFlickering = false;
            resetToDefault();

            // After default duration, start again
            setTimeout(runAnimation, defaultDuration);
          }, flickerDuration);
        }

        // Start animation when SVG loads
        // Use setTimeout to ensure DOM is fully ready when embedded via <object>
        function init() {
          if (rects.length > 0) {
            runAnimation();
          } else {
            setTimeout(init, 50);
          }
        }

        if (document.readyState === 'complete' || document.readyState === 'interactive') {
          setTimeout(init, 0);
        } else {
          document.addEventListener('DOMContentLoaded', init);
        }
      })();
    ]]>
  </script>
</svg>
