<?xml version="1.0" encoding="UTF-8"?>
<svg id="Layer_1" xmlns="http://www.w3.org/2000/svg" version="1.1" viewBox="0 0 283 51">
  <!-- Generator: Adobe Illustrator 30.1.0, SVG Export Plug-In . SVG Version: 2.1.1 Build 136)  -->
  <!-- Animation: Typing indicator style - sequential dot pulsing -->
  <defs>
    <style>
      .st0, .st1 {
        fill: #fff;
      }

      .st1 {
        opacity: .5;
      }

      .st1 {
        isolation: isolate;
      }
    </style>
  </defs>
  <path class="st0" d="M27.3,5.8h0c-11.2,0-20.3,9.1-20.3,20.3s9.1,20.3,20.3,20.3,20.3-9.1,20.3-20.3S38.5,5.8,27.3,5.8ZM31,37.6c-1.2.4-2.4.6-3.7.6-2.7,0-5.3-.9-7.4-2.6h-8.2l4.2-5.8c-2-6.3,1.5-13.1,7.8-15.1,6.3-2,13.1,1.5,15.1,7.8,2,6.3-1.5,13.1-7.8,15.1Z"/>
  <g id="Logo">
    <g id="Group_7877">
      <g id="Group_7813">
        <circle id="Ellipse_1" class="st0" cx="21.2" cy="26.1" r="2"/>
        <circle id="Ellipse_2" class="st0" cx="27.3" cy="26.1" r="2"/>
        <circle id="Ellipse_3" class="st1" cx="33.5" cy="26.1" r="2"/>
      </g>
      <g id="Group_7875">
        <path id="Path_9938" class="st0" d="M76.4,24c0,4.3-3.2,7-8.3,7h-4.4v5.7h-3.6v-19.6h8.1c5.2,0,8.3,2.6,8.3,7h0ZM72.7,24c0-2.5-1.7-3.9-4.8-3.9h-4.3v7.8h4.3c3.2,0,4.8-1.4,4.8-3.9Z"/>
        <path id="Path_9939" class="st0" d="M92.1,27.9v8.8h-3.3v-1.8c-.8,1.3-2.5,2-4.7,2-3.4,0-5.6-1.9-5.6-4.5s1.7-4.5,6.2-4.5h3.9v-.2c0-2-1.2-3.2-3.7-3.2s-3.2.5-4.5,1.5l-1.4-2.5c1.9-1.3,4.1-1.9,6.3-1.8,4.3,0,6.8,2,6.8,6.4v-.2ZM88.6,31.9v-1.7h-3.6c-2.4,0-3,.9-3,2s1.1,2.1,2.9,2.1c1.6,0,3.1-.8,3.8-2.3h-.1Z"/>
        <path id="Path_9940" class="st0" d="M105.6,35.8c-1,.7-2.2,1-3.4,1-3.3,0-5.2-1.7-5.2-5v-7.2h-2.5v-2.8h2.5v-3.4h3.5v3.4h4v2.8h-4v7.1c0,1.5.7,2.2,2.1,2.2s1.4-.2,2-.6l1,2.5Z"/>
        <path id="Path_9941" class="st0" d="M108,17.1c0-1.2,1-2.1,2.2-2.1h0c1.1,0,2.1.8,2.2,1.9h0c0,1.2-1.1,2.2-2.3,2.2s-2.1-.9-2.2-2.1h.1ZM108.4,21.7h3.5v15h-3.5v-15Z"/>
        <path id="Path_9942" class="st0" d="M130.5,30.3h-11.7c.4,2.2,2.2,3.6,4.8,3.6s3-.5,4.1-1.6l1.9,2.2c-1.5,1.7-3.7,2.6-6,2.4-5,0-8.3-3.2-8.3-7.7,0-4.1,3.1-7.5,7.2-7.6h.5c4.4,0,7.6,3.1,7.6,7.7v1h-.1ZM118.8,27.9h8.5c-.2-2.1-2.1-3.7-4.2-3.6-2.2,0-4,1.5-4.3,3.6h0Z"/>
        <path id="Path_9943" class="st0" d="M148.7,28v8.6h-3.5v-8.1c0-2.7-1.3-3.9-3.6-3.9s-4.2,1.5-4.2,4.5v7.6h-3.5v-14.9h3.3v1.9c1.3-1.4,3.2-2.2,5.2-2.1,3.6,0,6.2,2,6.2,6.5h.1Z"/>
        <path id="Path_9944" class="st0" d="M162.1,35.8c-1,.7-2.2,1-3.4,1-3.3,0-5.2-1.7-5.2-5v-7.2h-2.5v-2.8h2.5v-3.4h3.5v3.4h4v2.8h-4v7.1c0,1.5.7,2.2,2.1,2.2s1.4-.2,2-.6l1,2.5h0Z"/>
      </g>
      <g id="Group_7876" class="st2">
        <path id="Path_9945" class="st0" d="M163.9,26.8c0-5.9,4.5-10.1,10.5-10.1,2.9-.1,5.8,1.1,7.8,3.3l-2.4,2.2c-1.3-1.5-3.2-2.3-5.2-2.3-3.8,0-6.9,3-7,6.8s3,6.9,6.8,7h.2c2,0,3.9-.8,5.2-2.3l2.4,2.2c-2,2.2-4.8,3.4-7.8,3.3-6,0-10.5-4.2-10.5-10.1Z"/>
        <path id="Path_9946" class="st0" d="M183.6,29.1c0-4.5,3.4-7.6,8-7.6s8,3.2,8,7.6-3.3,7.7-8,7.7-8-3.2-8-7.7ZM196,29.1c-.1-2.5-2.2-4.3-4.7-4.2-2.5.1-4.3,2.2-4.2,4.7.1,2.4,2.1,4.2,4.4,4.2s4.4-1.8,4.5-4.2v-.4h0Z"/>
        <path id="Path_9947" class="st0" d="M227.9,28v8.6h-3.5v-8.1c0-2.7-1.2-3.9-3.4-3.9s-3.9,1.5-3.9,4.5v7.6h-3.5v-8.1c0-2.7-1.2-3.9-3.4-3.9s-3.9,1.5-3.9,4.5v7.6h-3.5v-14.9h3.3v1.9c1.2-1.4,3-2.2,4.9-2.1,2-.1,3.9.8,5,2.5,1.4-1.6,3.4-2.6,5.6-2.5,3.6,0,6.1,2.1,6.1,6.6l.2-.3Z"/>
        <path id="Path_9948" class="st0" d="M257.3,28v8.6h-3.5v-8.1c0-2.7-1.2-3.9-3.4-3.9s-3.9,1.5-3.9,4.5v7.6h-3.5v-8.1c0-2.7-1.2-3.9-3.4-3.9s-3.9,1.5-3.9,4.5v7.6h-3.5v-14.9h3.3v1.9c1.2-1.4,3-2.2,4.9-2.1,2-.1,3.9.8,5,2.5,1.4-1.6,3.4-2.6,5.6-2.5,3.6,0,6.1,2.1,6.1,6.6l.2-.3Z"/>
        <path id="Path_9949" class="st0" d="M260.1,35.1l1.3-2.7c1.6,1,3.4,1.5,5.2,1.5s3.1-.6,3.1-1.7c0-2.9-9.2-.2-9.2-6.1s2.5-4.7,6.6-4.7,3.9.4,5.6,1.3l-1.3,2.7c-1.3-.8-2.8-1.1-4.3-1.1s-3.1.7-3.1,1.7c0,3,9.2.3,9.2,6.2s-2.6,4.6-6.8,4.6-4.4-.5-6.3-1.7h0Z"/>
      </g>
    </g>
  </g>
  <script type="text/javascript">
    <![CDATA[
      (function() {
        var fullOpacity = 1;
        var dimOpacity = 0.3;
        var typingDuration = 2000; // 2 seconds of typing animation
        var staticDuration = 5000; // 5 seconds of static display
        var dotDelay = 300; // Delay between each dot lighting up

        var circles = [
          document.getElementById('Ellipse_1'),
          document.getElementById('Ellipse_2'),
          document.getElementById('Ellipse_3')
        ];

        // Original opacities: st0 = 1, st1 = 0.5
        var originalOpacities = [1, 1, 0.5];
        var isAnimating = false;
        var animationTimer = null;

        function resetToDefault() {
          for (var i = 0; i < circles.length; i++) {
            circles[i].style.opacity = originalOpacities[i];
          }
        }

        function pulseSequence() {
          if (!isAnimating) return;

          var dotIndex = 0;

          function pulseDot() {
            if (!isAnimating) return;

            // Dim all dots first
            for (var i = 0; i < circles.length; i++) {
              circles[i].style.opacity = dimOpacity;
            }

            // Light up current dot
            circles[dotIndex].style.opacity = fullOpacity;

            // Move to next dot
            dotIndex = (dotIndex + 1) % circles.length;

            // Continue the sequence
            animationTimer = setTimeout(pulseDot, dotDelay);
          }

          pulseDot();
        }

        function runAnimation() {
          // Start typing animation phase
          isAnimating = true;
          pulseSequence();

          // After typing duration, stop and reset to default
          setTimeout(function() {
            isAnimating = false;
            if (animationTimer) {
              clearTimeout(animationTimer);
              animationTimer = null;
            }
            resetToDefault();

            // After static duration, start again
            setTimeout(runAnimation, staticDuration);
          }, typingDuration);
        }

        // Start animation when SVG loads
        if (document.readyState === 'complete') {
          runAnimation();
        } else {
          window.addEventListener('load', runAnimation);
        }
      })();
    ]]>
  </script>
</svg>
